<svg xmlns="http://www.w3.org/2000/svg" viewBox="0 0 354.12 355.32"><defs><style>.cls-1{fill:#29235c;stroke:#2d2e83;stroke-width:14.12px;}.cls-1,.cls-30,.cls-34,.cls-36,.cls-7{stroke-miterlimit:10;}.cls-2{font-size:29.48px;font-family:Mama-Regular, Mama;}.cls-10,.cls-2{fill:#fff;}.cls-3{fill:#d8121f;}.cls-4{fill:#341115;}.cls-5{fill:#dce4d8;}.cls-6{fill:#dfb08b;}.cls-7{fill:#287832;stroke:#526656;stroke-width:0.64px;}.cls-8{fill:#ce9c77;}.cls-9{fill:#1d1d1b;}.cls-11{fill:#a86d35;}.cls-12{fill:#5b302a;}.cls-13{fill:#bf8555;}.cls-14{fill:#9fa49b;}.cls-15{fill:#f6f6f6;}.cls-16{fill:#6f726c;}.cls-17{fill:#acb1a8;}.cls-18{fill:#776536;}.cls-19{fill:#273372;}.cls-20{fill:#1c1f3e;}.cls-21{fill:#3c3c3b;}.cls-22{fill:#c81617;}.cls-23{fill:#dedc00;}.cls-24{fill:#7b1710;}.cls-25{fill:#d25657;}.cls-26{fill:#226181;}.cls-27{fill:#283170;}.cls-28{fill:#726a36;}.cls-29{fill:#37311a;}.cls-30,.cls-34{fill:none;stroke:#a86d35;}.cls-30{stroke-width:0.96px;}.cls-31{fill:#efed9d;}.cls-32{fill:#c1181b;}.cls-33{fill:#a91917;}.cls-34{stroke-width:0.54px;}.cls-35{fill:#7f2620;}.cls-36{fill:#1a1b38;stroke:#1c1f3e;stroke-width:0.32px;}.cls-37{fill:#9f7e63;}.cls-38{fill:#604c3c;}</style></defs><g id="Слой_2" data-name="Слой 2"><g id="Слой_1-2" data-name="Слой 1"><circle class="cls-1" cx="177.06" cy="178.26" r="170"/><text class="cls-2" transform="matrix(0.03, -1.02, 0.99, 0.05, 72.33, 175.79)">Д</text><text class="cls-2" transform="matrix(0.25, -0.98, 0.96, 0.27, 73.3, 147.92)">Я</text><text class="cls-2" transform="matrix(0.45, -0.9, 0.89, 0.47, 78.5, 125.59)">Д</text><text class="cls-2" transform="matrix(0.64, -0.77, 0.77, 0.66, 91.07, 101.04)">Я</text><text class="cls-2" transform="matrix(0.74, -0.67, 0.67, 0.76, 106.13, 83.66)"> </text><text class="cls-2" transform="matrix(0.82, -0.57, 0.58, 0.83, 112.03, 77.81)">С</text><text class="cls-2" transform="matrix(0.91, -0.42, 0.43, 0.91, 127.55, 66.87)">Т</text><text class="cls-2" transform="matrix(0.97, -0.25, 0.27, 0.97, 144.68, 58.72)">Ё</text><text class="cls-2" transform="matrix(1.01, -0.05, 0.07, 1, 164.69, 53.38)">П</text><text class="cls-2" transform="matrix(1, 0.16, -0.13, 0.99, 187.21, 52.19)">А</text><text class="cls-2" transform="matrix(0.97, 0.29, -0.26, 0.96, 209.18, 56.04)"> </text><text class="cls-2" transform="matrix(0.93, 0.41, -0.38, 0.92, 217.32, 58.08)">У</text><text class="cls-2" transform="matrix(0.84, 0.58, -0.55, 0.83, 235.03, 65.63)">Ч</text><text class="cls-2" transform="matrix(0.72, 0.74, -0.7, 0.7, 253.89, 78.63)">И</text><text class="cls-2" transform="matrix(0.58, 0.85, -0.82, 0.55, 269.07, 94.29)">Т</text><text class="cls-2" transform="matrix(0.47, 0.91, -0.88, 0.45, 279.84, 110.74)"> </text><text class="cls-2" transform="matrix(0.34, 0.97, -0.94, 0.32, 284.18, 117.99)">П</text><text class="cls-2" transform="matrix(0.13, 1.02, -0.99, 0.1, 292.23, 139.45)">Д</text><text class="cls-2" transform="matrix(-0.12, 1.01, -0.99, -0.14, 295.82, 167.18)">Д</text><path class="cls-3" d="M120.87,194.7c-1,1.05-1.09,2.46-1.21,4.14,0,.66-.23,3.33.65,3.64.67.25,1.31-1.16,2.88-2.48,3.39-2.84,7.2-2,7.38-3.27.16-1.13-2.76-2.34-3-2.44C127.1,194.1,123,192.48,120.87,194.7Z"/><path class="cls-4" d="M150.73,143.86a3,3,0,0,1,1.29,1.66c.37,1.34-.52,2.62-1.09,3.39-2,2.81-3.91,2.14-5.61,4.55a6.17,6.17,0,0,0-1.13,4.85,5.83,5.83,0,0,0,3.68,3.6c1.72.59,3.14.11,3.39.75.18.48-.58.92-1,1.78-1.4,2.75,2.38,6.37,1.33,7.9s-5.06-.55-5.65.54,2.68,2.67,4.23,6.21c2,4.58.72,11.06-2.74,13.46-1.42,1-2.52.8-5.81,1-8.7.51-9.87,2.35-15.73,2.49-4.78.11-10,.23-13.32-2.74-8.56-7.61.13-31.08-3.51-44.46-1.57-5.77-2.35-8.65-3.87-10.81-1.38-1.94-3-3.49-2.54-5.09.4-1.36,2.11-2,4.23-2.73,2.94-1,4.69-1.68,6.54-1.25,4.58,1.07,7,8.19,10.53,13.34a22,22,0,0,0,1.42,1.85,21.18,21.18,0,0,0,2,2.08c2.15,1.82,5.46,2.38,6.46,2.53"/><path class="cls-5" d="M145.32,153.46a7.17,7.17,0,0,0,2,3.57c.11.1,2.69,2.49,5.69,1.73s4.31-4.27,4.72-5.46c1.22-3.47-.12-4.74-.24-10.31,0-1.57.07-1.54,1.69-14,.8-6.15.83-6.53.73-7.32-.87-7.17-6.93-11.64-7.5-12-7.2-5.14-15.7-2.87-18.52-2.11-.73.19-13.94,3.91-17.43,14-1.22,3.51-.84,6.59-3.76,9.81-1.91,2.12-3.43,2.31-5.2,5.1-.77,1.21-2.82,4.44-1.58,7.08a5.4,5.4,0,0,0,3.39,2.61c3.38.87,7.63-1.82,10.66-6.71"/><path class="cls-6" d="M153.23,133.59c.06.95-.84,1.15-1.58,2.9s-.24,2.8-.6,4.91a10.74,10.74,0,0,1-2.66,5.38c-2.35,2.38-5.53,2.62-7,2.73-.71.05-2.73-.15-6.78-.56a9.28,9.28,0,0,1-1.57-.25c-1.91-.47-2-1.2-4.3-2.23a7.67,7.67,0,0,1-2.75-1.55,2.66,2.66,0,0,1-.73-1c-.46-1.22.62-2.54,1.61-4.26s.51-1.45,2-4.6c2-4.32,3.06-6.48,5-7.45,1.2-.6,2.44-.5,4.9-.31,3.58.28,6,1.32,9.2,2.67C153,132.14,153.21,133.18,153.23,133.59Z"/><path class="cls-7" d="M138.49,156.09a4.25,4.25,0,0,1,1.79,2.84c2.42,8.83,2.65,10.24,1.9,10.72-.12.08-.16.07-2.42.13-2,.05-2,.06-2.1,0-2.21-.7-1.32-6.46-1.9-12a2,2,0,0,1,.34-1.59A2.17,2.17,0,0,1,138.49,156.09Z"/><path class="cls-7" d="M135.9,155.7c.31.72.74,1.75,1.19,3a41.89,41.89,0,0,1,1.86,6.92c.54,3.13,1.19,6.91-.2,7.7-.46.26-.71,0-2.06-.25-3.25-.5-4.81.79-5.81-.08-.67-.59-.45-1.59-.36-3.52.2-4.73-.7-8.76-1.9-14.12-.19-.84-.35-1.51-.45-1.9"/><path class="cls-7" d="M129,147.17a16.46,16.46,0,0,0,3.15,1.53,22.45,22.45,0,0,0,8.11,1.22c1.76-.11,2.9-.43,3.43.27.29.39,0,.75,0,2.53,0,2.59,0,3-.28,3.31-.55.65-1.58.54-3.59.25-3.5-.5-5.25-.76-6.46-1.08a45.44,45.44,0,0,1-6.59-2.31"/><path class="cls-8" d="M153.23,133.59a7.77,7.77,0,0,0-1.54,3.82c-.14,1.38-.17,2.81-.3,4.22,0,.7-.14,1.44-.23,2.16a5.49,5.49,0,0,1-.91,2.07,9.87,9.87,0,0,1-3.37,2.84,15.4,15.4,0,0,1-4.12,1.44,11.62,11.62,0,0,1-4.36,0,14,14,0,0,1-7.36-4.19,16.71,16.71,0,0,0,3.55,2.24,13.15,13.15,0,0,0,3.94,1.22,12.94,12.94,0,0,0,7.89-1.54,9.21,9.21,0,0,0,3.1-2.52,4.87,4.87,0,0,0,.83-1.75l.31-2c.22-1.4.32-2.79.57-4.21A7.46,7.46,0,0,1,153.23,133.59Z"/><path class="cls-7" d="M121.41,172.84a3.63,3.63,0,0,1,2.13,1.74,4.22,4.22,0,0,1-1.7,5.13,4.36,4.36,0,0,1-3.79.25"/><path class="cls-7" d="M151.26,162.66a5.08,5.08,0,0,0-1.24,2.4c-.74,2.61-.08,6.16,1.76,6.95.64.28,1,.05,3.55-.74,4.93-1.55,5-1.15,6.3-2a9.79,9.79,0,0,0,3.79-4.64c.37-1,1.11-3,.16-4.22s-2.71-1-3.15-1c-2.47.17-4.18,2.11-4.44,1.82s.42-.65.81-1.82c.32-1,.5-2.26.08-2.49-.19-.1-.45.05-.59.13a2.28,2.28,0,0,0-.87,1.24,8.7,8.7,0,0,1-1.36,1.86C154.59,161.89,152.82,161.07,151.26,162.66Z"/><ellipse class="cls-9" cx="138.9" cy="132.76" rx="2.01" ry="2.06"/><ellipse class="cls-9" cx="148.59" cy="135.68" rx="1.96" ry="2.01"/><ellipse class="cls-10" cx="139.7" cy="132.29" rx="0.62" ry="0.64"/><ellipse class="cls-10" cx="149.81" cy="135.36" rx="0.53" ry="0.54"/><path class="cls-11" d="M141.64,140.75a1.78,1.78,0,0,1,.94-1.1,1.75,1.75,0,0,1,1.45-.11,8.06,8.06,0,0,1-1.16.68A9.06,9.06,0,0,1,141.64,140.75Z"/><path class="cls-12" d="M138.24,142.16c-.14,0-.19.57-.15,1a2.86,2.86,0,0,0,1.49,2.23,2.72,2.72,0,0,0,2.22,0c.66-.24,1.33-.76,1.25-1s-.22-.11-.69-.17a8.91,8.91,0,0,1-1.59-.31,3.88,3.88,0,0,1-1.46-.72,5.78,5.78,0,0,1-.62-.6C138.42,142.33,138.34,142.14,138.24,142.16Z"/><path class="cls-13" d="M138.18,142a7.12,7.12,0,0,0,2.33,1.68,8.11,8.11,0,0,0,2.84.55,3.78,3.78,0,0,1-3.09,0A3.62,3.62,0,0,1,138.18,142Z"/><path class="cls-8" d="M138.23,142.08a3.33,3.33,0,0,0,.29,1.87,2.4,2.4,0,0,0,1.26,1.17,2.87,2.87,0,0,0,1.76.13,3.7,3.7,0,0,0,1.63-1,2.76,2.76,0,0,1-1.46,1.45,2.86,2.86,0,0,1-2.17,0,2.59,2.59,0,0,1-1.49-1.58A2.68,2.68,0,0,1,138.23,142.08Z"/><path class="cls-14" d="M153.23,133.59a7.53,7.53,0,0,0-1.21,1.95c-.64,1.52-.51,2.68-.66,4.75a14,14,0,0,1-.58,4.1c-1.46,3.06-5.46,2.37-6.26,5-.32,1,0,2,.75,3.91a9.24,9.24,0,0,0,2.27,3.79,6.91,6.91,0,0,0,6.39,1.64c4-1.29,4.17-8.22,4.24-10.09a19.1,19.1,0,0,0-2.43-9.81"/><path class="cls-15" d="M119.16,123.61a16.76,16.76,0,0,1,2.62-6.55,19.74,19.74,0,0,1,11.47-8.23,17.43,17.43,0,0,1,7-.49,60.47,60.47,0,0,0-6.37,2.37,34.7,34.7,0,0,0-5.66,3.26,33.25,33.25,0,0,0-4.9,4.31A51.9,51.9,0,0,0,119.16,123.61Z"/><path class="cls-8" d="M136.12,149.31a10.65,10.65,0,0,1-1.8-.17,12.44,12.44,0,0,1-3.54-1.32c-.57-.29-.47-.27-1.15-.62-1.4-.72-1.62-.68-2.47-1.2a6.82,6.82,0,0,1-1.61-1.52,1,1,0,0,1-.23-.54,1,1,0,0,1,.07-.49c.35-.92.24-.73.78-2.32a6.16,6.16,0,0,1,.54-1.18c.51-.89.77-1.33,1-1.29.54.09-.07,2.38,1.16,4.56a22.08,22.08,0,0,0,2.47,2.66,12.27,12.27,0,0,0,2.3,2,9.63,9.63,0,0,0,1.81.9"/><path class="cls-16" d="M144.44,149.71a8.91,8.91,0,0,0,.26,1.64c.3,1.2.69,1.73.48,1.93s-1-.07-1.14-.51a2.15,2.15,0,0,1,0-.75,2.43,2.43,0,0,0,0-.25,2.25,2.25,0,0,1,0-.26c0-.12,0-.11,0-.24a2.36,2.36,0,0,0,0-.3c0-.09,0-.15,0-.17s-.09-.35-.56-.83"/><path class="cls-17" d="M108.53,145.83a4.48,4.48,0,0,1-3-3.07,6.25,6.25,0,0,1-.23-2.24,5.91,5.91,0,0,1,.65-2.19,17.2,17.2,0,0,1,1.14-1.91,12.67,12.67,0,0,1,1.41-1.78c1.07-1.07,2-2,3-3.15a15.8,15.8,0,0,0,2.48-3.37,9.15,9.15,0,0,0,.72-1.9,20.8,20.8,0,0,0,.33-2.09,12.76,12.76,0,0,1,1.34-4.36A18.11,18.11,0,0,1,119,116.1a42.24,42.24,0,0,1,3.12-3.16,25.93,25.93,0,0,1,3.6-2.66,39.59,39.59,0,0,1,8.14-3.54,23,23,0,0,1,8.84-1.19,20.26,20.26,0,0,1,8.54,2.68,20.73,20.73,0,0,1,6.58,6.06,14,14,0,0,1,2.64,8.57,38.79,38.79,0,0,1-.23,4.43c-.18,1.48-.45,2.92-.7,4.35-.48,2.86-1,5.75-1.35,8.58a13.31,13.31,0,0,0-.07,2.08c.05.7.13,1.4.25,2.1a25.87,25.87,0,0,1,.59,4.43,16.78,16.78,0,0,1-.57,4.5,11.35,11.35,0,0,1-.86,2.15,11.9,11.9,0,0,1-1.23,1.94,5.4,5.4,0,0,1-4.24,2,7,7,0,0,1-4.27-1.64,8.51,8.51,0,0,1-2.39-3.77,15.34,15.34,0,0,1-.94-4.27,15,15,0,0,0,1.28,4.14,7.87,7.87,0,0,0,2.47,3.37,6.18,6.18,0,0,0,3.83,1.2,4.24,4.24,0,0,0,3.25-1.85,14.92,14.92,0,0,0,1.1-1.75,9.14,9.14,0,0,0,.77-1.89,15.93,15.93,0,0,0,.52-4.14,25.79,25.79,0,0,0-.57-4.23,20.27,20.27,0,0,1-.27-2.23,14.32,14.32,0,0,1,.08-2.28c.32-3,.87-5.8,1.36-8.68.25-1.44.52-2.86.68-4.28a35.77,35.77,0,0,0,.23-4.28,12.8,12.8,0,0,0-2.41-7.84,19.63,19.63,0,0,0-6.17-5.69,19,19,0,0,0-8-2.5,21.87,21.87,0,0,0-8.36,1.13,38,38,0,0,0-7.86,3.41A25.6,25.6,0,0,0,123,113.9a41.31,41.31,0,0,0-3,3,17.14,17.14,0,0,0-2.46,3.41,11.64,11.64,0,0,0-1.2,3.94,21.28,21.28,0,0,1-.36,2.22,10,10,0,0,1-.82,2.18,15.38,15.38,0,0,1-2.67,3.66,41,41,0,0,1-3.23,3,11.54,11.54,0,0,0-1.41,1.55,17.93,17.93,0,0,0-1.23,1.75,5.28,5.28,0,0,0-.65,4A4.27,4.27,0,0,0,108.53,145.83Z"/><path class="cls-17" d="M153.23,133.61a4.31,4.31,0,0,0-2.18-1.89,25.94,25.94,0,0,1-2.8-1.17,20.4,20.4,0,0,0-2.74-1.11c-.95-.32-1.9-.64-2.85-.91a29.7,29.7,0,0,0-11.82-.82,21.73,21.73,0,0,1,6-.93,19.93,19.93,0,0,1,6.08.83c1,.29,1.94.62,2.88,1a16.42,16.42,0,0,1,2.79,1.3c.87.51,1.73.94,2.66,1.4A4.3,4.3,0,0,1,153.23,133.61Z"/><path class="cls-17" d="M134.62,127.2a9.47,9.47,0,0,0-1.4,1.53,5.76,5.76,0,0,0-1.21,1.52c-.67,1.2-1.29,2.45-1.95,3.67a18.64,18.64,0,0,0-.91,1.85c-.27.63-.47,1.28-.73,2a14.3,14.3,0,0,1-.93,1.93c-.5.55-.95,1.1-1.45,1.61.17-.72.4-1.38.59-2.05a11.12,11.12,0,0,0,.89-1.84c.24-.62.46-1.31.74-2a20.88,20.88,0,0,1,.93-1.9c.67-1.25,1.3-2.5,2-3.74a7.06,7.06,0,0,1,1.38-1.75A6,6,0,0,1,134.62,127.2Z"/><path class="cls-6" d="M223.32,139.55c.65,1.14-.11,1.42-2.43,13.09a126.88,126.88,0,0,0-2.21,13.91c0,.13,0,.36-.06.66a12.07,12.07,0,0,0,.58,3.76,12.07,12.07,0,0,1,.45,3.61,8.92,8.92,0,0,1-1.38,3.73c-5.26,8.32-16.79,12.09-16.79,12.09-13.62,4.44-23.63.26-24.76-1.33s-.17-1.73-2.42-13.25a62.75,62.75,0,0,1-1.46-8.94,47.21,47.21,0,0,1,.33-8.94C175.3,144.85,218.44,131,223.32,139.55Z"/><path class="cls-8" d="M223.41,140.14c.4.77-.11,1.07-1.7,8a97.87,97.87,0,0,0-2.18,11.28c-.91,8.23.82,9.95-1.16,12.77-1.39,2-3.85,2.81-8.76,4.45-4.22,1.41-7.14,2.39-11.32,2.61-7.21.38-12.41-1.81-16.61-3.57-8-3.34-8.56-6.16-8.66-6.87,0-.26-.06-1.1-.1-2.76-.06-2.88-.07-5.28-.07-5.5C173,154.4,219.6,132.77,223.41,140.14Z"/><path class="cls-6" d="M162.43,102.87c-.65,2.63.68,4.45,0,11.68-.53,5.61-1.58,7.13-1.93,11.18-.15,1.66-.27,4.82,2.9,15.65,3.68,12.57,5.61,18.93,9.93,22.6a24.77,24.77,0,0,0,10.41,5,31.7,31.7,0,0,0,20.57-1.24c4-1.7,12.53-5.3,14.05-12.18.33-1.49.74-5,1.93-10.93a8.41,8.41,0,0,1,1.94-4.22c1.35-1.46,2.42-1.31,3.87-2.23,4.37-2.79,4.36-10.32,4.36-11.43,0-2.78.32-5-1.21-6.46a4.31,4.31,0,0,0-3.87-1,4,4,0,0,0-1.93,1.1c-1.57,1.63-1.18,4.09-1.46,4.11-.5,0-1.51-7.42-2.5-12.91-.68-3.7-1.9-10.43-4-13.92C207,83.89,165.51,90.47,162.43,102.87Z"/><path class="cls-18" d="M213.15,102.87c-.49,1.26-.18,2.93.48,6.21a53.42,53.42,0,0,0,2.3,8.45c1.17,3.15,2,4.38,1.7,6.58-.15,1.19-.53,2-.12,2.36.71.71,3.35-.14,4.48-2,.92-1.5.15-2.54,1.07-3.72,1.12-1.43,2.68-.44,4.16-1.54,1.29-1,.95-2.36,1.06-12.13a8.51,8.51,0,0,0-.85-4.59,8.27,8.27,0,0,0-4.76-3.93C218.84,97.47,214.38,99.68,213.15,102.87Z"/><path class="cls-19" d="M223.82,99a24.49,24.49,0,0,0,3.41-.3c2.28-.35,13.68-2.08,16.87-10.35a11.64,11.64,0,0,0,.16-8.2c-1.31-3.25-4.16-4.86-7.18-6.37a96.3,96.3,0,0,0-18.72-7.29c-7-1.67-13-3.1-21.47-3.31-16.67-.42-28.84,4.26-35.83,6.95-3.4,1.31-7.06,3.53-14.36,8-3.34,2-5.31,3.35-6,5.8-.89,3.3,1,6.91,3.07,8.94,2.32,2.32,4.56,2.4,8.07,3.65,6.1,2.16,8.69,5.27,11.78,7.28C177.85,113,203.13,99.5,223.82,99Z"/><path class="cls-20" d="M223.82,99c1.2.17,2,0,4.41-.46,4.87-.93,4.41-.77,4.89-.92a19.43,19.43,0,0,0,6.56-3.6,15.91,15.91,0,0,0,2.81-2.79,10.36,10.36,0,0,0,.88-1.35,11.4,11.4,0,0,0,.73-1.53,3.53,3.53,0,0,0,.37-1.12c-.33-.65-4.07,1.1-7.59,1.95-6.91,1.67-9.09-1-12.84,1.37-2.63,1.68-4.68,5-3.87,6.7C220.78,98.6,223,98.91,223.82,99Z"/><path class="cls-21" d="M218.25,99.85a26.07,26.07,0,0,0-5.95,3s-1,1.17-8.71,4.6c-5.26,2.35-7.14,1.38-25.91,2.73-5.16.37-7.78.65-10.53-1.12-3.45-2.21-6-6.93-4.72-9.31.5-.92,1.39-1.18,3.55-1.88,7.89-2.58,6.87-2.65,9.28-3.22,10-2.34,29.05.25,29.05.25s18.2,2.45,18.08,3.69a.63.63,0,0,1-.2.28c-.48.49-1.22.39-1.82.4A18.27,18.27,0,0,0,218.25,99.85Z"/><path class="cls-22" d="M223.92,99.77c-3.38-1.15-6.33-2-8.65-2.55a109.84,109.84,0,0,0-22.64-3.17c-4.31-.11-7.65.12-8.53.19-2.72.2-4.74.49-5.21.56-5.5.8-8.25,1.2-10.86,2.64-3.49,1.92-4.82,4.29-6.08,3.66-1-.52-.46-2.31-1.95-4.83-1.38-2.33-2.8-2.33-2.89-3.25-.3-3,13.87-9,30.26-9.19,4.67-.07,8.06.34,14.83,1.16,1.26.15,23.5,2.92,23.54,6.89,0,.73-.74.93-1.41,2.71A10,10,0,0,0,223.92,99.77Z"/><path class="cls-23" d="M186.16,81.51c-1.43.1-2.35,1.48-2.91,2.32a9.56,9.56,0,0,0-.64,9.52c.43.79,1.38,2.54,2.92,2.67,1.78.15,3.16-2,3.63-2.67,2-3,2.21-7.56,0-10.19C188.81,82.77,187.66,81.4,186.16,81.51Z"/><path class="cls-9" d="M170,120.16a2.74,2.74,0,0,0,.28,2.15,2.78,2.78,0,0,0,3.09.87,2.68,2.68,0,0,0,1.6-1.24,2.8,2.8,0,0,0,.28-1.82"/><ellipse class="cls-15" cx="173.41" cy="121.26" rx="0.62" ry="0.63"/><path class="cls-9" d="M178,119a8.78,8.78,0,0,1-5.95,1.87,10.9,10.9,0,0,1-5.92-2,26.29,26.29,0,0,0,6,1.08A15.62,15.62,0,0,0,178,119Z"/><path class="cls-9" d="M197.66,119.25a2.52,2.52,0,0,0,0,1.63,3,3,0,0,0,2.86,1.57,3.25,3.25,0,0,0,2.62-1.36,3.33,3.33,0,0,0,.51-2.31"/><ellipse class="cls-15" cx="201.65" cy="120.2" rx="0.62" ry="0.63"/><path class="cls-9" d="M194.11,118.89a50.58,50.58,0,0,0,7.61-.29,58.55,58.55,0,0,0,7.48-1.49,18.78,18.78,0,0,1-7.37,2.44A18.14,18.14,0,0,1,194.11,118.89Z"/><path class="cls-11" d="M180.75,114.71a9.53,9.53,0,0,1,2.35,6.64,11.78,11.78,0,0,1-2.27,6.69,23.4,23.4,0,0,0,1.31-6.71,13.54,13.54,0,0,0-.31-3.35A16.27,16.27,0,0,0,180.75,114.71Z"/><path class="cls-11" d="M179.34,132a12.59,12.59,0,0,1,.94,1.87c.28.62.58,1.23.9,1.82.61,1.21,1.3,2.35,1.95,3.64a8.24,8.24,0,0,1-2.8-3.2,8.06,8.06,0,0,1-.75-2A11,11,0,0,1,179.34,132Z"/><path class="cls-12" d="M174.19,146.28c0-.11.52,0,1.09.06.91.15,1.82.22,2.71.4a51.51,51.51,0,0,0,16-.55c2-.36,5.85-1.19,5.89-1,0,0,0,0-.24.22l-.52.44a22.85,22.85,0,0,1-5.06,3,18.73,18.73,0,0,1-6.72,1.47s-4.9.21-12.13-3.36C175,146.83,174.14,146.42,174.19,146.28Z"/><path class="cls-13" d="M173.45,146.16c1.16,0,2.3.13,3.45.19s2.28.18,3.42.18c2.29,0,4.57,0,6.85-.17s4.57-.32,6.85-.55,4.56-.54,6.84-.83a53.17,53.17,0,0,1-6.74,1.57,66.29,66.29,0,0,1-6.89.77,47.29,47.29,0,0,1-6.94,0A58,58,0,0,1,173.45,146.16Z"/><path class="cls-8" d="M199.91,145.18a17.46,17.46,0,0,1-5.72,4,19.3,19.3,0,0,1-13.92.54,21.19,21.19,0,0,1-3.22-1.46,18.71,18.71,0,0,1-2.86-2,25.06,25.06,0,0,0,6.3,2.78,21.71,21.71,0,0,0,6.75.78,22.41,22.41,0,0,0,6.67-1.29A19.09,19.09,0,0,0,197,147.1,23.75,23.75,0,0,0,199.91,145.18Z"/><path class="cls-6" d="M200.4,143.88a8,8,0,0,0,.33,1.42,7.46,7.46,0,0,0,.6,1.33,2.47,2.47,0,0,1-.91-1.22A2.43,2.43,0,0,1,200.4,143.88Z"/><path class="cls-11" d="M192.69,155.62c-.77-.13-1.5-.27-2.23-.36a18.7,18.7,0,0,0-2.17-.21,6.58,6.58,0,0,0-2.06.29,10.09,10.09,0,0,0-2,.94,4.33,4.33,0,0,1,1.71-1.63,4.9,4.9,0,0,1,2.37-.56,8,8,0,0,1,2.32.44A6.14,6.14,0,0,1,192.69,155.62Z"/><path class="cls-13" d="M222.31,129.7a11,11,0,0,0,3-2.79,16.64,16.64,0,0,0,1.87-3.67,5.92,5.92,0,0,1-1.09,4.23A5.17,5.17,0,0,1,222.31,129.7Z"/><path class="cls-13" d="M226,126.68c0,1.1-.17,2.07-.24,3.06s-.12,2-.27,3.07a5.51,5.51,0,0,1,.51-6.13Z"/><path class="cls-24" d="M157.62,91.76A21.87,21.87,0,0,1,163.17,88a31.79,31.79,0,0,1,6.37-2.13c2.18-.51,4.37-.93,6.57-1.22s4.42-.54,6.65-.62l-6.52,1.35c-2.17.46-4.33.9-6.47,1.43a46.28,46.28,0,0,0-6.31,1.86A34,34,0,0,0,157.62,91.76Z"/><path class="cls-24" d="M191.84,83.92a147.29,147.29,0,0,1,16.52,1.31A55,55,0,0,1,216.49,87a46,46,0,0,1,7.71,3.09c-1.31-.45-2.61-.9-3.93-1.28s-2.64-.78-4-1.1c-2.67-.64-5.36-1.14-8.08-1.52s-5.45-.72-8.18-1.1l-4.1-.54C194.58,84.33,193.21,84.16,191.84,83.92Z"/><path class="cls-25" d="M162.3,101.2c.74-.6,1.49-1.16,2.24-1.71s1.45-1.15,2.16-1.75a11.79,11.79,0,0,1,2.39-1.7,10.08,10.08,0,0,1,2.85-.84c1.89-.26,3.73-.47,5.6-.63s3.75-.27,5.64-.26c-1.82.52-3.66.91-5.5,1.26s-3.72.62-5.54.9a9,9,0,0,0-2.53.67,12.36,12.36,0,0,0-2.3,1.39,26.35,26.35,0,0,1-2.43,1.49C164,100.43,163.17,100.84,162.3,101.2Z"/><path class="cls-13" d="M181.53,126.51a13.25,13.25,0,0,0-.05-5.17,9.3,9.3,0,0,0-2.75-5.22,8.26,8.26,0,0,0-8.47-1.24c-2.5,1.11-3.63,3.47-4.12,3.14s.07-1.78.73-2.89a7.07,7.07,0,0,1,3.58-2.92,9.3,9.3,0,0,1,8.93,1.67,8.4,8.4,0,0,1,2,2.24C184,120.51,181.71,126.54,181.53,126.51Z"/><path class="cls-11" d="M172.72,114.19a10.39,10.39,0,0,0-3.65,1.67,24.73,24.73,0,0,0-3.09,2.66,8.29,8.29,0,0,1,2.72-3.19,7.23,7.23,0,0,1,1.91-.94A5.05,5.05,0,0,1,172.72,114.19Z"/><path class="cls-13" d="M209.1,115.17a15.78,15.78,0,0,0-3.66-2.2c-2-.84-4.11-1.76-6.6-1.09a9,9,0,0,0-5.12,4.16c-.85,1.56-.85,2.81-1.24,2.79s-1.11-2.41-.63-4.59a4.45,4.45,0,0,1,1.33-2.61,4.82,4.82,0,0,1,2.49-.91,21.86,21.86,0,0,1,4.29-.64,12.92,12.92,0,0,1,5.26,1.24,7.27,7.27,0,0,1,2.66,1.86A6.91,6.91,0,0,1,209.1,115.17Z"/><path class="cls-18" d="M166.24,114.23a8.94,8.94,0,0,1,5.19-2.68,7.15,7.15,0,0,1,3,0,6,6,0,0,1,2.63,1.42l-.05.12c-1-.08-1.9-.19-2.83-.28a24.12,24.12,0,0,0-2.68-.29,9.44,9.44,0,0,0-5.19,1.76Z"/><path class="cls-18" d="M207.84,113.23a10.71,10.71,0,0,0-3.35-1.89,11.33,11.33,0,0,0-3.71-.69,24.58,24.58,0,0,0-3.74.4c-1.26.17-2.5.42-3.84.64l0-.12a9.85,9.85,0,0,1,3.63-1.78,10.92,10.92,0,0,1,4.07-.16,12.17,12.17,0,0,1,3.89,1.12,11.37,11.37,0,0,1,3.19,2.38Z"/><path class="cls-11" d="M193,117.75a5.91,5.91,0,0,1,1.36-3.23,6.08,6.08,0,0,1,2.87-2,20,20,0,0,0-2.38,2.41A18.31,18.31,0,0,0,193,117.75Z"/><path class="cls-11" d="M208.73,114.88c-1-.45-2-1-3-1.43s-2-.93-3-1.48a8.59,8.59,0,0,1,3.25.91A8.71,8.71,0,0,1,208.73,114.88Z"/><path class="cls-26" d="M145.53,78.83q3.58-2.4,7.25-4.72c2.49-1.44,5-2.79,7.66-4a81.63,81.63,0,0,1,16.41-5.58,82.69,82.69,0,0,1,17.24-1.82,71.26,71.26,0,0,1,8.65.58A69.06,69.06,0,0,1,211.21,65a84.82,84.82,0,0,0-8.54-1.09,70,70,0,0,0-8.57-.23,88.88,88.88,0,0,0-17,2.09c-2.79.61-5.55,1.34-8.27,2.21s-5.38,1.92-8,3-5.22,2.35-7.76,3.68S148.08,77.47,145.53,78.83Z"/><path class="cls-27" d="M162.55,191.39a143.81,143.81,0,0,1-17.05,3.11s-17.81,2.14-23.28,6.67l-.21.18c-.34.34-.61.91-5.11,6.49-3.08,3.81-5.67,6.93-7,6.41a1.8,1.8,0,0,1-.77-.88c-.41-.84-.11-1.55-.05-2.52a8.71,8.71,0,0,0-.53-2.7,53.94,53.94,0,0,0-5-11c-3.45-5.65-6.57-9.62-10.55-12.87a6.12,6.12,0,0,0-3.2-1.64c-4-.51-7.73,4.23-9.23,6.15C63.19,211,62.89,205.89,53.73,222.25c-11,19.57-16,29.63-13.46,39.83s10.8,16.28,15,19.4,10.15,7.48,17.91,7.08c5.41-.28,10.47-2.81,13.8-4.47a69.25,69.25,0,0,0,7-4.22c2.82-1.86,5.11-3.56,6.77-4.86,2.25-2.31,4-4.12,4.85-5.08a13.84,13.84,0,0,0,1.63-1.9c.42-.68.5-1,.79-1.08s.81.17,1.82,2.48c2.28,5.22,2.59,4.41,3.63,7.33,2.63,7.4,3.7,18.29,3.7,18.29,1.6,16.82.35,17.76,2,19.33,5.36,5.18,17.38-6.49,38.62-10.29,9.59-1.72,20.28-.32,41.64,2.48,29.55,3.87,38,8.28,45.52,2,2.84-2.38,5.39-9.05,10.37-22.3,4.38-11.62,7.45-19.79,7.95-23.75,2.24-17.78-35.89-41.83-87.86-61.09"/><path class="cls-28" d="M136.57,195.37c0,2.48,0,4.53.07,5.94.2,6.72.78,12.07,1.38,17.52.12,1.11.33,3,.65,5.51,1.06,8.37,2.36,15.69,3.56,21.59.67,3.32,1.86,8.86,3.62,15.68.91,3.5,2.6,9.79,5.1,17.53,2.32,7.18,2.28,6.14,4.64,13.31.68,2.06,1.62,4,2.33,6.07,1.14,3.24,1.51,4.8,2.72,5.16s1.81-.92,4-.84c1.67.06,2.44.86,2.83.5.65-.63-1.11-3.56-2-5.11-2.06-3.64-3.17-7.77-4.84-11.62-3.3-7.58-7.31-20.24-10.12-31.23A258.25,258.25,0,0,1,145,228.2c-.57-3.94-1.65-12.1-2.24-22.57-.25-4.47-.35-8.3-.39-11.26"/><path class="cls-20" d="M150.78,193.36c-4.2.64-8.38,1.31-12.5,2.24-2.07.45-4.12.92-6.14,1.48a37.2,37.2,0,0,0-5.86,2,10.87,10.87,0,0,0-2.46,1.57,8.9,8.9,0,0,0-1.86,2.17c-.48.84-1,1.86-1.57,2.78s-1.22,1.82-1.87,2.69a41.76,41.76,0,0,1-9.54,8.81,86.36,86.36,0,0,0-9.7,8c-3.12,2.83-6.14,5.81-9.2,8.73C84,239.74,77.86,245.56,72,251.67c2.61-3.35,5.39-6.56,8.19-9.76s5.75-6.24,8.68-9.31,5.92-6.08,9-9a83.91,83.91,0,0,1,9.86-8.24,40.26,40.26,0,0,0,9.16-8.28c.64-.8,1.26-1.63,1.82-2.48s1-1.73,1.63-2.71a10.07,10.07,0,0,1,2.32-2.58,12.4,12.4,0,0,1,2.94-1.73,55.69,55.69,0,0,1,12.52-3A123.06,123.06,0,0,1,150.78,193.36Z"/><path class="cls-6" d="M99.94,206.84c.65-.34,1.61-.85,2.74-1.5,4.67-2.67,7-4,9.2-6.48a14.27,14.27,0,0,0,3.83-7c.32-1.75,0-2,.24-4.1.38-2.72,1.21-3.65,2.77-7.38,1.2-2.86,2-5.29,3-8.64,1.28-4.09,1.39-4.59,2.17-6.09a53.19,53.19,0,0,1,3.37-5.28c1.83-2.62,2.86-3.83,2.58-4.17s-1.58.39-2.44.86a15.43,15.43,0,0,0-3.8,3c-1.15,1.22-1.72,2.16-1.81,2.1a18.42,18.42,0,0,1,1.67-3.31,75,75,0,0,1,3.82-6.92c1.4-2,2.5-3,2.18-4.36a2,2,0,0,0-.93-1.27c-1-.51-2.31.5-2.72.82a7.55,7.55,0,0,0-2.3,3.28c-1.85,4.38-4.91,7.8-5.26,7.61-.18-.1.23-1.24.89-3.07a29.67,29.67,0,0,1,2.49-5.64c.73-1.2.71-.92,2.38-3.46a9.11,9.11,0,0,0,1.84-4.15c.07-.67.18-1.73-.32-2-1-.62-3.53,2.27-4.05,1.8-.1-.09,0-.22,0-1,.1-1.19.14-1.79-.14-2.08s-1-.21-1.32-.14c-2.12.5-3.7,2.71-4.9,4.42-1,1.36-1.35,2.21-2.35,2.46a16.4,16.4,0,0,0-1.78.21,5,5,0,0,0-1.86,1.14c-2,1.6-2.52,1.25-3.84,2.46a11.7,11.7,0,0,0-2,2.86c-2.93,4.74-3.15,4.87-4.7,7.63a24.33,24.33,0,0,0-1.75,3.44c-.73,2.17-.61,3.75-.6,6.25a41.82,41.82,0,0,1-.43,8.48c-.51,2.66-1,5.33-3,7.69-1.36,1.6-2.3,1.76-2.66,3.13s.48,2.4,2.09,5.86c2,4.28,1.56,4.86,3.14,7.39A20.1,20.1,0,0,0,99.06,206"/><path class="cls-20" d="M113.65,214.11c-.57,2.06-1.17,4.11-1.66,6.2s-1,4.14-1.43,6.23c-.84,4.18-1.52,8.39-2,12.62s-.71,8.48-.8,12.74c0,2.13,0,4.26,0,6.4s.16,4.27.27,6.41c-.41-2.11-.67-4.24-.92-6.37s-.33-4.28-.41-6.43a92.38,92.38,0,0,1,2.81-25.59q.81-3.13,1.8-6.19C112.07,218.09,112.8,216.07,113.65,214.11Z"/><path class="cls-29" d="M136.43,196a364.57,364.57,0,0,0,7.68,55.1c2,9.06,4.35,18,7,26.91q2,6.66,4.35,13.22c1.5,4.4,3.17,8.73,4.84,13.07-2-4.19-3.82-8.48-5.58-12.79s-3.29-8.71-4.78-13.13a265.73,265.73,0,0,1-12-54.51c-.47-4.64-.93-9.27-1.2-13.92S136.39,200.68,136.43,196Z"/><path class="cls-29" d="M142.44,194.87c.18,2.33.34,4.67.48,7l.22,3.5.33,3.48.32,3.49.4,3.48.4,3.47.48,3.47c1.29,9.23,3,18.41,5.14,27.47s4.71,18,7.67,26.89,6.28,17.58,9.88,26.22a228.19,228.19,0,0,1-11.29-25.73c-.84-2.19-1.57-4.42-2.34-6.63L152,264.27c-1.32-4.5-2.56-9-3.65-13.6a228.51,228.51,0,0,1-4.75-27.73l-.37-3.5-.27-3.51-.25-3.5-.16-3.51-.12-3.52v-3.51C142.4,199.55,142.42,197.21,142.44,194.87Z"/><path class="cls-20" d="M108.08,267c-1.17,1.58-2.29,3.22-3.56,4.74a47.78,47.78,0,0,1-4.18,4.24,60.81,60.81,0,0,1-9.67,7c-.85.53-1.74,1-2.61,1.46s-1.79.89-2.68,1.31c-1.79.84-3.58,1.69-5.45,2.43a18.67,18.67,0,0,1-6,1.36,20.52,20.52,0,0,1-6.1-.61c-4-1-7.48-3.14-10.88-5.1a40.7,40.7,0,0,1-9.6-7.17,28.05,28.05,0,0,1-6.15-10.26,30.91,30.91,0,0,1-1.48-11.75A32.73,32.73,0,0,0,42,266.05a27.2,27.2,0,0,0,6.29,9.66,35.14,35.14,0,0,0,4.48,3.67c1.6,1.1,3.29,2.08,5,3,3.43,1.94,6.81,3.95,10.51,4.87,7.58,2.37,14.89-2.19,21.83-5.47a60.87,60.87,0,0,0,9.77-6.48,49.22,49.22,0,0,0,4.37-3.93c.7-.69,1.29-1.48,1.94-2.22Z"/><path class="cls-20" d="M86.57,183.31q-1.86,1.86-3.74,3.7L81,188.84c-.61.62-1.2,1.27-1.79,1.91-2.39,2.56-4.61,5.25-6.77,8-4.3,5.52-8.65,11.05-13.16,16.42a85.05,85.05,0,0,0-11.36,17.47c-1.58,3.11-3,6.31-4.25,9.57s-2.43,6.56-3.52,9.9c.8-3.42,1.8-6.79,2.91-10.12A104.92,104.92,0,0,1,47,232.2a81.14,81.14,0,0,1,11.27-17.86c4.59-5.31,8.9-10.81,13.39-16.22,2.25-2.69,4.59-5.33,7.08-7.81.63-.62,1.26-1.23,1.91-1.82l2-1.74C83.91,185.59,85.23,184.44,86.57,183.31Z"/><path class="cls-11" d="M99.94,206.84a86.18,86.18,0,0,0,8.33-5.69,24.83,24.83,0,0,0,3.8-3.18,12,12,0,0,0,2.59-4,12.66,12.66,0,0,0,.38-2.41c.1-.85.24-1.7.41-2.53a46.05,46.05,0,0,1,1.32-4.94c.53-1.64,1.26-3.18,1.87-4.73s1.17-3.14,1.7-4.73,1-3.2,1.48-4.81c.23-.81.43-1.64.75-2.47a22.61,22.61,0,0,1,1.1-2.33,32.44,32.44,0,0,1,2.78-4.32c.51-.68,1-1.34,1.59-2a18.32,18.32,0,0,0,1.5-1.91c.1-.14.08-.31.11-.15s.07.07.06.06h-.17a3.62,3.62,0,0,0-1.07.28,11.18,11.18,0,0,0-5.61,4.53,46.19,46.19,0,0,0-3,4l-2.71,4.27,2.28-4.53a47.27,47.27,0,0,1,2.66-4.35,15.13,15.13,0,0,1,3.68-3.68,14.71,14.71,0,0,1,2.35-1.17,4.59,4.59,0,0,1,1.37-.34,1.28,1.28,0,0,1,.46,0,.87.87,0,0,1,.55.42.88.88,0,0,1,0,.65,1.34,1.34,0,0,1-.17.4,17.63,17.63,0,0,1-1.6,2.07c-.54.64-1.06,1.29-1.57,2a31.74,31.74,0,0,0-2.69,4.19,22.53,22.53,0,0,0-1,2.23,24.26,24.26,0,0,0-.73,2.37q-.67,2.46-1.49,4.86c-.53,1.61-1.09,3.21-1.72,4.79s-1.34,3.09-1.85,4.67a47.76,47.76,0,0,0-1.29,4.83c-.16.81-.3,1.63-.39,2.45a13.62,13.62,0,0,1-.43,2.58c-1.24,3.41-4,5.8-6.75,7.73A69.17,69.17,0,0,1,99.94,206.84Z"/><path class="cls-11" d="M121.69,162.37c.64-1.68,1.39-3.31,2.17-4.93s1.84-3.09,2.64-4.68c.4-.79.8-1.6,1.23-2.4s.92-1.56,1.27-2.33a1,1,0,0,0,.06-1,1.34,1.34,0,0,0-.92-.49,2.43,2.43,0,0,0-1.17.07,2.39,2.39,0,0,0-.94.71,51.15,51.15,0,0,0-3,4.38l-3,4.51c-1,1.48-2,3-3.09,4.42a20.47,20.47,0,0,1-1.91,1.93l-2,1.84a77.41,77.41,0,0,0,6.44-8.55l2.93-4.49a48.7,48.7,0,0,1,3.08-4.47,2.79,2.79,0,0,1,1.2-.88,3,3,0,0,1,1.48-.11,2,2,0,0,1,1.36.78,1.29,1.29,0,0,1,.2.85,2.7,2.7,0,0,1-.21.73c-.39.87-.89,1.6-1.3,2.39s-.81,1.58-1.22,2.38c-.81,1.63-1.79,3.13-2.64,4.7S122.57,160.81,121.69,162.37Z"/><path class="cls-11" d="M118.13,158.53a32.58,32.58,0,0,1,1.67-5.72,21,21,0,0,1,2.76-5.32,18.59,18.59,0,0,0,2.83-5.08,7.63,7.63,0,0,0,.25-1.4c0-.45,0-.95-.28-1.13a1.3,1.3,0,0,0-1.11.12,7.27,7.27,0,0,0-1.24.7,15.57,15.57,0,0,0-4.18,4c-1.14,1.62-2.21,3.29-3.28,5s-2.09,3.37-3.09,5.08l-3,5.12,2.78-5.27q1.41-2.62,2.94-5.19c1-1.71,2.1-3.37,3.22-5a16.13,16.13,0,0,1,4.3-4.22,8.14,8.14,0,0,1,1.36-.75,3.16,3.16,0,0,1,.79-.23,1.32,1.32,0,0,1,.94.21,1.91,1.91,0,0,1,.49,1.64,7.56,7.56,0,0,1-.28,1.52c-.06.25-.14.49-.22.74l-.34.69a11.31,11.31,0,0,1-.73,1.33,24.67,24.67,0,0,1-1.71,2.47,20.83,20.83,0,0,0-2.86,5.14A32.32,32.32,0,0,0,118.13,158.53Z"/><path class="cls-11" d="M120.71,142.29a5,5,0,0,0,.69-1.92,3.76,3.76,0,0,0-.09-1.93c-.18-.47-.93-.11-1.46.22a13.36,13.36,0,0,0-1.61,1.22,29.36,29.36,0,0,0-2.94,2.85c-.9,1-1.72,2.12-2.56,3.22-1.67,2.22-3.49,4.36-5.31,6.41a17.33,17.33,0,0,0-2.26,3.4,24.13,24.13,0,0,0-1.65,3.79,18.76,18.76,0,0,1,3.33-7.65c1.73-2.21,3.48-4.3,5.13-6.53.85-1.09,1.68-2.21,2.65-3.25a24.46,24.46,0,0,1,3.14-2.81,14.45,14.45,0,0,1,1.78-1.18,4.18,4.18,0,0,1,1-.41,1.32,1.32,0,0,1,.65,0,.86.86,0,0,1,.5.49,4.2,4.2,0,0,1-.09,2.18A4.79,4.79,0,0,1,120.71,142.29Z"/><path class="cls-30" d="M113.18,144.6a15.28,15.28,0,0,0-3.12,1.12,17,17,0,0,0-6,5c-1,1.29-.75,1.38-2.54,4.31-1.56,2.54-2.74,4.12-3.15,4.72-4.27,6.24.23,15.09-4.6,23.93a19.31,19.31,0,0,1-3.62,4.68"/><path class="cls-20" d="M89.63,182.88A39.7,39.7,0,0,0,95.26,200a38.28,38.28,0,0,0,12.82,12.61,29,29,0,0,1-7.9-4.82,30.33,30.33,0,0,1-3.31-3.3,31.38,31.38,0,0,1-6.38-12.39A28.33,28.33,0,0,1,89.63,182.88Z"/><ellipse class="cls-31" cx="128.63" cy="225.31" rx="4.33" ry="4.44"/><ellipse class="cls-31" cx="133.51" cy="274.56" rx="4.88" ry="5.01"/><path class="cls-20" d="M165.66,243.66a29.44,29.44,0,0,0-2.41,2.06c-.38.37-.71.78-1.08,1.17l-1.07,1.18,1-1.23c.35-.41.66-.84,1-1.23a28.33,28.33,0,0,1,2.32-2.2Z"/><path class="cls-6" d="M189.64,226.82c-.34-2.24-2-2.74-3.69-6-1.06-2.08-1.32-4.3-1.85-8.76-.61-5.17-1.48-12.55.36-16.52a6.34,6.34,0,0,0,.61-2.11c0-.21.28-3.1-1.45-4.85-1.57-1.57-3-.38-4.73-1.86s-.91-3.19-2.66-4.72c-1.14-1-1.8-.52-5.69-1.37-3.25-.7-3.19-1.12-6.29-1.73a25.93,25.93,0,0,0-5.81-.63c-3.17.06-3,.75-6.05.87-2.09.09-2.66-.16-8.11-.24-1.65,0-3.3,0-3.58.71-.15.42.19,1,.52,1.46.9,1.39,2.06,1.79,2,2.05s-1.81-.21-4.42-.19a5.23,5.23,0,0,0-2.42.56,1.12,1.12,0,0,0-.5.44,1.91,1.91,0,0,0,.1,1.6,3.69,3.69,0,0,0,1.94,1.81c1.45.61,2.73.15,3,.81a.61.61,0,0,1,0,.43c-.1.18-.43.42-3.23-.11-1.16-.22-1.51-.45-2.14-.26a2.28,2.28,0,0,0-1.65,1.91c0,1.17,1.35,1.95,1.85,2.23.87.48,1.82.55,3.71.71a11.13,11.13,0,0,1,3.42.62,4.39,4.39,0,0,1,1,.6c.34.27.82.65.75.83s-1,0-2.44-.11c-1.22-.05-2.42-.1-2.77.54s.11,1.2.17,1.32.51.82,2.1,1.29,1.73,0,2.75.33,1.39,1.08,2.9,2.48a23.41,23.41,0,0,0,3,2.24c2.52,1.94,2.93,6.05,3.63,14.12a85.85,85.85,0,0,0,1.25,8.69c.46,2.34.86,3.87,2.14,4.72s2.46.29,3.71,1.28,1.45,2.79,1.61,3.86c.59,3.72,2.91,8.83,5.53,10.1,3.94,1.9,10.07-4.15,15.86-9.86C189.56,230.6,189.86,228.24,189.64,226.82Z"/><path class="cls-27" d="M228.52,189.32a209.45,209.45,0,0,1,20.87,8.76c17.22,8.36,19.62,12.46,20.53,15.34,1.38,4.36-.23,7.26-1.82,13.78-3.85,15.83.27,20.71-1.33,35.15-.91,8.27-2.91,26.37-14.52,35.28-16.21,12.42-42.69,0-50-3.36a69.77,69.77,0,0,1-16.19-10.34,78.61,78.61,0,0,1-15-18s-2.59-4.09-6.93-11.95c-.9-1.64-2.08-3.93-2.33-4.41a8.51,8.51,0,0,0-.47-.94c-.17-.26-.31-.41-.26-.53s.36-.12.65-.14c.1,0,.52-.1,1.38-.31.53-.13,1.89-.47,3.31-.91,0,0,.7-.22,1.72-.58,0,0,1.94-.69,3.59-1.41a38.64,38.64,0,0,0,10.61-7.17c5.8-5.8,7.61-12.73,7.91-12.58.13.06-.13,1.21-.61,1.29s-1-1-2.09-3c-1.57-2.82-1.71-2.61-2.22-3.77a13.62,13.62,0,0,1-1-5.62c-.18-11.11-2.33-11.37-.94-14.67.74-1.75,2.18-3.82,1.58-6.44a6.34,6.34,0,0,0-.56-1.49"/><path class="cls-32" d="M230.81,190.53c1.53-.19,3.32.54,6.83,2,2.79,1.17,4.79,2.24,5.41,2.57,6.42,3.39,8.31,3.36,16.86,7.7,5.35,2.71,5.95,3.4,6.14,4.3.83,3.94-6.35,10.51-12.67,9.94-3.16-.29-4.45-2.2-8.48-5.47-12-9.69-20.69-9.06-21-13.82C223.73,194.54,227.54,190.94,230.81,190.53Z"/><path class="cls-10" d="M226.1,193.29a199.4,199.4,0,0,1,17.13,11c1,.77,3.19,2.45,5.42,1.84a5.62,5.62,0,0,0,3.17-3q-3.1-2-6.65-3.92a107.94,107.94,0,0,0-17.62-7.57"/><path class="cls-27" d="M219.25,170.73c-.07.13,2,.83,2.13,2.07s-1.62,2.17-3.15,3.23c-3.66,2.55-3.47,3.73-6.53,6.21A28.5,28.5,0,0,1,197.78,188c-5.84.69-9.42-.93-10.78,1.24-.5.82-.61,2.41-.84,5.59-.1,1.33-.12,2.45-.12,2.86,0,2.34.74,12.53,8.11,17.76,1.36,1,4.57,3.25,7.86,2.36,2.63-.71,3.87-3,5.21-5,6.36-9.16,15.07-9.48,21.91-18.88.81-1.11,2.15-3.11,1.69-5.21-.41-1.91-2-2.76-3.51-4.1-1.07-1-4.42-5.15-4.72-9.56a4.9,4.9,0,0,0-.82-2.77A3.68,3.68,0,0,0,219.25,170.73Z"/><path class="cls-33" d="M186.33,201.09a20.23,20.23,0,0,0,3.52-.34c7.84-1.51,10.75-7.27,14.34-6,1.64.6,2.84,2.46,2.61,3.73-.19,1-1.3,1.45-4.79,2.86-4,1.61-8.32,2.42-12.09,4.53-.39.22-1.77,1-2.23.58-.06,0-.07-.12-.15-.42-.17-.58-.13-.32-.38-1.17a21.73,21.73,0,0,1-.68-2.73c-.08-.46-.13-.84-.15-1.07"/><ellipse class="cls-31" cx="203.57" cy="197.87" rx="1.38" ry="1.41"/><path class="cls-10" d="M256.09,201c-1.67-.18-3,1.07-4.27,2.16-5.15,4.34-9.39,5.55-9,6.87.1.35.4.26,2.08,1.61,1.16.93,1.12,1,1.42,1.19,1.34.6,2.82-1.31,6.65-4,3.32-2.33,5-3.49,6.46-4,.76-.25,1.91-.55,1.94-1.07,0-.25-.24-.53-2.42-1.58A13.82,13.82,0,0,0,256.09,201Z"/><ellipse class="cls-31" cx="224.04" cy="220.85" rx="5.68" ry="5.43"/><path class="cls-20" d="M237.08,220.87a48,48,0,0,0-3.93,6.88,41.33,41.33,0,0,0-2.58,7.4,52.72,52.72,0,0,0-1.24,15.69,33.56,33.56,0,0,1,0-16,31.71,31.71,0,0,1,2.93-7.54A28.17,28.17,0,0,1,237.08,220.87Z"/><path class="cls-20" d="M236.51,256.89a50.62,50.62,0,0,0-13.07-7.58,19.47,19.47,0,0,1,13.07,7.58Z"/><path class="cls-20" d="M231.55,258.63a55.94,55.94,0,0,0-4.36-5.09,48.58,48.58,0,0,0-4.9-4.51,57.22,57.22,0,0,0-5.44-3.83C215,244,213,243,211,241.93a70.12,70.12,0,0,1-11.19-7.51q-2.6-2.16-5-4.51c-1.58-1.6-3.12-3.23-4.56-4.94a106.42,106.42,0,0,0,10,8.87,75.84,75.84,0,0,0,11.19,7.24,61.56,61.56,0,0,1,11.28,7.39A45.35,45.35,0,0,1,231.55,258.63Z"/><path class="cls-20" d="M190.27,225a26.48,26.48,0,0,1-1.59,4.64c-.33.76-.76,1.46-1.16,2.18l-.61,1.08-.7,1a30.58,30.58,0,0,1-6.93,7,41.23,41.23,0,0,1-18.18,7.16c1.58-.43,3.15-.86,4.68-1.41a47.63,47.63,0,0,0,4.53-1.75,42.93,42.93,0,0,0,8.4-4.77,32.19,32.19,0,0,0,6.9-6.69A31.69,31.69,0,0,0,190.27,225Z"/><path class="cls-20" d="M161.1,248.07c4.29,7.75,8.66,15.5,14,22.54A78.73,78.73,0,0,0,194,288.87a76.22,76.22,0,0,0,23.88,10.75c2.13.55,4.27,1,6.45,1.45s4.33.88,6.5,1.25c4.31.73,8.71,1.17,12.78.06a19.43,19.43,0,0,0,10.25-7.1,42.22,42.22,0,0,0,5.92-11.53c1.49-4.13,2.72-8.4,4-12.64a65.89,65.89,0,0,0,2.49-12.88,53.18,53.18,0,0,0,.15-6.56c-.06-2.18-.38-4.34-.57-6.6a38.75,38.75,0,0,1,.1-6.73c.2-2.21.37-4.43.66-6.64a31.63,31.63,0,0,1,1.49-6.56c.73-2.14,1.95-4,2.23-6.19a11.87,11.87,0,0,0-.91-6.4,12.06,12.06,0,0,0-4.06-5.11A12.4,12.4,0,0,1,270.8,219a13.24,13.24,0,0,1-.87,3.28c-.42,1-.85,2-1.18,3.08a31.06,31.06,0,0,0-1.23,6.44c-.23,2.19-.37,4.4-.52,6.61a36.73,36.73,0,0,0,0,6.55c.22,2.16.59,4.39.7,6.64a54,54,0,0,1,0,6.73,57.91,57.91,0,0,1-.82,6.69c-.41,2.21-.95,4.39-1.55,6.54-1.23,4.27-2.43,8.54-3.92,12.77a43.83,43.83,0,0,1-6.12,12.06,21.32,21.32,0,0,1-11.19,7.84c-4.57,1.2-9.23.65-13.6-.11-2.21-.39-4.39-.85-6.56-1.31s-4.36-.93-6.52-1.51a74.31,74.31,0,0,1-24.27-11.23,79.33,79.33,0,0,1-18.81-18.92A168,168,0,0,1,161.1,248.07Z"/><path class="cls-20" d="M230.82,188.7a6,6,0,0,1,0,2.46,6.43,6.43,0,0,1-1,2.29,46.59,46.59,0,0,1-3.13,3.83,44.65,44.65,0,0,1-3.56,3.45,45.25,45.25,0,0,1-4,2.94c-.69.46-1.43.89-2.13,1.29a12.05,12.05,0,0,0-1.92,1.27c-1.19,1-2.44,2.14-3.61,3.21a24,24,0,0,0-3.21,3.43c-.22.3-.43.62-.63.95l-.6,1.06a9.19,9.19,0,0,1-1.74,2.11,8,8,0,0,1-5.08,2,9,9,0,0,1-5.06-1.74,20.49,20.49,0,0,1-6.76-7.48,22.52,22.52,0,0,1-2.64-9.61,36.42,36.42,0,0,1,.86-9.79,41.39,41.39,0,0,0,.08,9.7,22.51,22.51,0,0,0,3,9,19.67,19.67,0,0,0,6.44,6.7,7.41,7.41,0,0,0,4.05,1.38,6.1,6.1,0,0,0,3.84-1.54,7.16,7.16,0,0,0,1.38-1.65l.61-1c.23-.37.47-.73.73-1.08a24.38,24.38,0,0,1,3.5-3.66c1.27-1.1,2.45-2.13,3.79-3.19a14,14,0,0,1,2.19-1.37c.74-.36,1.43-.73,2.12-1.14,1.35-.81,2.75-1.72,4-2.64a47.51,47.51,0,0,0,3.67-3.14,48.06,48.06,0,0,0,3.39-3.46A6.19,6.19,0,0,0,230.82,188.7Z"/><path class="cls-11" d="M170.3,192.18a5,5,0,0,0-2-2.52,9.75,9.75,0,0,0-3.08-.92,10.59,10.59,0,0,1-5.73-3.77,33.18,33.18,0,0,0,2.91,1.69,14.06,14.06,0,0,0,3.05,1.15,7.68,7.68,0,0,1,3.28,1.25A4.12,4.12,0,0,1,170.3,192.18Z"/><path class="cls-11" d="M157.53,184.91a19.54,19.54,0,0,0-4.44-1.33,17.68,17.68,0,0,0-4.6-.14,43.35,43.35,0,0,1-4.7,0,31.89,31.89,0,0,1-4.67-.59c1.57.06,3.12.11,4.68.1s3.1-.06,4.66-.18a16.31,16.31,0,0,1,4.72.3A13.78,13.78,0,0,1,157.53,184.91Z"/><path class="cls-11" d="M175.3,181.44c-1.09-.15-2.16-.38-3.23-.57s-2.15-.33-3.24-.46a21.07,21.07,0,0,1-6.32-1.84,40.4,40.4,0,0,0,6.39,1.36c1.08.17,2.17.33,3.24.58S174.26,181.1,175.3,181.44Z"/><path class="cls-11" d="M157.34,178.32a25.52,25.52,0,0,1-3.67.9,11,11,0,0,1-1.89.22c-.65,0-1.27,0-1.89,0-1.23-.1-2.48,0-3.74-.08s-2.51-.2-3.75-.37c1.26-.09,2.5-.11,3.75-.12s2.5-.12,3.76-.07c.64,0,1.26.1,1.86.1s1.23-.1,1.84-.13a16.77,16.77,0,0,0,1.86-.2C156.09,178.46,156.71,178.37,157.34,178.32Z"/><path class="cls-11" d="M163.52,200.13a5.07,5.07,0,0,1-2.9-4.41,14.4,14.4,0,0,0,1.23,2.34A14,14,0,0,0,163.52,200.13Z"/><path class="cls-11" d="M159,194.54a21.09,21.09,0,0,0-3.81-2.82,15.89,15.89,0,0,0-2.11-1,7.47,7.47,0,0,0-1.12-.4c-.37-.13-.75-.25-1.13-.4a13,13,0,0,1,2.38.45,12.19,12.19,0,0,1,2.22,1A11.06,11.06,0,0,1,159,194.54Z"/><path class="cls-11" d="M149.6,189.57c-1.1,0-2.18-.11-3.25-.22s-2.16-.1-3.24-.11a25.7,25.7,0,0,1-3.28-.23c-1.08-.21-2.15-.46-3.2-.75,1.1.05,2.18.13,3.25.25s2.15.09,3.24.09a23.88,23.88,0,0,1,3.27.25Q148,189.15,149.6,189.57Z"/><path class="cls-11" d="M156.26,200.93c.34.55.58,1.08.91,1.57s.64,1,1,1.54a3.42,3.42,0,0,1-1.88-3.11Z"/><path class="cls-11" d="M155.61,200.25a7.59,7.59,0,0,1-2-.88A8.48,8.48,0,0,1,152,198a4.4,4.4,0,0,0-1.6-1.15,17.92,17.92,0,0,0-2-.53,38.59,38.59,0,0,0-4.13-.8c-1.39-.15-2.8-.25-4.21-.45,1.41-.06,2.84-.09,4.26,0a29.9,29.9,0,0,1,4.22.67,18.68,18.68,0,0,1,2.08.6,4.35,4.35,0,0,1,1.75,1.37A9.13,9.13,0,0,0,155.61,200.25Z"/><path class="cls-11" d="M175.3,181.44a11.32,11.32,0,0,0,3.3,4.48,8.29,8.29,0,0,0,2.44,1.25,5.36,5.36,0,0,1,2.54,1.56,6.69,6.69,0,0,1,1.31,2.69,7.66,7.66,0,0,1,.16,3,12.84,12.84,0,0,1-.65,2.87,6.89,6.89,0,0,0-.42,1.29,9.63,9.63,0,0,0-.16,1.34c-.09,1.83,0,3.75.06,5.63s.28,3.75.49,5.63a49.34,49.34,0,0,1,.42,5.7c0,1-.07,1.9-.13,2.85s-.12,1.9-.2,2.84c-.08-1.9,0-3.79-.14-5.67a53.2,53.2,0,0,0-.68-5.62,49.09,49.09,0,0,1-.63-5.68c-.08-1.91-.21-3.79-.15-5.74a10.94,10.94,0,0,1,.2-1.48,7.9,7.9,0,0,1,.48-1.4,12,12,0,0,0,.64-2.66,6.65,6.65,0,0,0-.1-2.67,6.5,6.5,0,0,0-1.07-2.43,4.53,4.53,0,0,0-2.19-1.45,8.86,8.86,0,0,1-2.52-1.46A10.88,10.88,0,0,1,175.3,181.44Z"/><path class="cls-34" d="M184.58,217.82c.33.83.71,1.69,1.16,2.57a30.73,30.73,0,0,0,4,6"/><path class="cls-11" d="M143.37,183.11a6.85,6.85,0,0,1-1.76-1.15,3.35,3.35,0,0,1-1.23-1.85,1.27,1.27,0,0,1,.06-.68,1,1,0,0,1,.51-.5,3.18,3.18,0,0,1,1.11-.25,11.94,11.94,0,0,1,2.09.22c-.68.14-1.4.19-2,.28a2.94,2.94,0,0,0-.88.29c-.13.08-.19.12-.21.2a.63.63,0,0,0,0,.34,3.59,3.59,0,0,0,1,1.6Q142.62,182.38,143.37,183.11Z"/><path class="cls-11" d="M141,188.64a1.72,1.72,0,0,0-1.49-.59,9,9,0,0,1-.92-.12,4,4,0,0,1-.9-.32,4,4,0,0,1-2.33-2.91,1.64,1.64,0,0,1,.2-1.07,1.73,1.73,0,0,1,.85-.66,7.36,7.36,0,0,1,1.82-.41,9.43,9.43,0,0,1,1.84,0,9.26,9.26,0,0,1,1.73.58,15,15,0,0,0-1.78.06,9,9,0,0,0-1.72,0c-1.08.15-2.53.35-2.31,1.42a3.36,3.36,0,0,0,2,2.42,4.24,4.24,0,0,0,1.63.37A1.89,1.89,0,0,1,141,188.64Z"/><path class="cls-11" d="M144.66,195.27a4.16,4.16,0,0,0-1.68-1.36,5.31,5.31,0,0,0-2.12-.33c-.75,0-1.49-.09-2.24-.15a12.78,12.78,0,0,1-2.25-.39,4.1,4.1,0,0,1-2-1.3,3.53,3.53,0,0,1-.61-1.05,1.82,1.82,0,0,1,0-1.26,2.73,2.73,0,0,1,4.05-.94,2.88,2.88,0,0,0-2.11-.18,2.11,2.11,0,0,0-1.47,1.27,2,2,0,0,0,.61,1.78,3.48,3.48,0,0,0,1.72,1.07,25.35,25.35,0,0,0,4.34.66,5.66,5.66,0,0,1,2.22.54A3.92,3.92,0,0,1,144.66,195.27Z"/><path class="cls-11" d="M140.19,195a.8.8,0,0,0-.81.42,1.28,1.28,0,0,0,0,.94,2.3,2.3,0,0,0,1.34,1.27,5.88,5.88,0,0,0,1.87.45c.32,0,.61-.05,1-.07a2.83,2.83,0,0,1,1.11.23,4.15,4.15,0,0,1,.87.67l.73.68,1.5,1.34c.5.43,1,.86,1.54,1.24a9.78,9.78,0,0,1,1.63,1.26,8.76,8.76,0,0,1,1.93,3.66,15.26,15.26,0,0,1,.42,2,8.93,8.93,0,0,1,.1,1l.05,1a37.58,37.58,0,0,0,.4,4c.23,1.29.56,2.61.75,4,.41,2.66.52,5.4.8,8a3.39,3.39,0,0,0,2.06,2.84,13,13,0,0,1,1.92.72,6.8,6.8,0,0,1,1.65,1.32,10.1,10.1,0,0,1,2,3.63,30,30,0,0,1,.66,4c.5,2.56,2.39,4.69,4.42,6.39-2.15-1.54-4.26-3.5-5-6.24a14.91,14.91,0,0,1-.27-2,9.37,9.37,0,0,0-.38-1.91,9.61,9.61,0,0,0-1.83-3.39,5.79,5.79,0,0,0-1.48-1.18,13.09,13.09,0,0,0-1.84-.7,3.56,3.56,0,0,1-1.71-1.33,4.93,4.93,0,0,1-.75-2c-.29-2.72-.39-5.36-.81-8-.18-1.32-.5-2.6-.74-4a39.27,39.27,0,0,1-.4-4l-.06-1c0-.31-.05-.65-.09-1a15.61,15.61,0,0,0-.41-1.92,8.1,8.1,0,0,0-1.77-3.4,9.05,9.05,0,0,0-1.54-1.18,18.52,18.52,0,0,1-1.59-1.28l-1.51-1.34a12.69,12.69,0,0,0-1.45-1.25,2.24,2.24,0,0,0-.83-.23,9.14,9.14,0,0,1-1,0,6.12,6.12,0,0,1-2-.63,2.59,2.59,0,0,1-1.37-1.53,1.46,1.46,0,0,1,0-1A.86.86,0,0,1,140.19,195Z"/><path class="cls-35" d="M231.82,190.53a33.37,33.37,0,0,1,6.37,1.52,40.57,40.57,0,0,1,5.95,2.73c1.87,1.06,3.75,2,5.66,3s3.85,1.91,5.79,2.92a35.23,35.23,0,0,1-6.29-1.78,44.29,44.29,0,0,1-5.93-2.75c-1.88-1.06-3.74-2.06-5.66-3S233.79,191.52,231.82,190.53Z"/><path class="cls-35" d="M261.39,203.57c.57.22,1.14.44,1.7.68l1.66.83a4.77,4.77,0,0,1,.8.49,2.51,2.51,0,0,1,.76.79,3.42,3.42,0,0,1,.37,2.1,7.62,7.62,0,0,1-1.57,3.61,16,16,0,0,1-2.68,2.71,13.74,13.74,0,0,1-7,2.88,9,9,0,0,1-3.78-.53,6.43,6.43,0,0,1-2.93-2.27,7.42,7.42,0,0,0,3.16,1.52,9.71,9.71,0,0,0,3.4,0,13.26,13.26,0,0,0,3.23-1.1,15.45,15.45,0,0,0,2.92-1.81,15,15,0,0,0,2.47-2.37,7.13,7.13,0,0,0,1.53-2.86,2.4,2.4,0,0,0-.07-1.44,3.18,3.18,0,0,0-1.09-1.13l-1.42-1.08C262.38,204.29,261.88,203.94,261.39,203.57Z"/><path class="cls-35" d="M224.5,199.47a8.28,8.28,0,0,0,2.85,2c.53.24,1.1.39,1.67.6s1.11.42,1.66.65c2.2.93,4.3,2.05,6.4,3.16a44.28,44.28,0,0,1,6,4,50,50,0,0,1,5.36,4.71c-1.84-1.5-3.71-3-5.65-4.31a53.19,53.19,0,0,0-6-3.79c-2.07-1.15-4.16-2.26-6.3-3.28-.53-.25-1.06-.49-1.61-.72s-1.11-.41-1.65-.69A7.79,7.79,0,0,1,224.5,199.47Z"/><path class="cls-6" d="M175.3,181.44c-.36-.44-.94-1.15-1.67-2-2.28-2.64-2.6-2.74-3.33-3.91a11.6,11.6,0,0,1-1.75-3.79c-.26-1.09-.21-1.78-.79-2.23a2.08,2.08,0,0,0-2.48.12,2.73,2.73,0,0,0-.73,2.17c0,1.3.55,1.38.85,3.26a6,6,0,0,1,0,2.7,4.35,4.35,0,0,0-.38,1,.62.62,0,0,1-.11.33c-.08.12-.17.15-.16.18s.36,0,.82,0a2.49,2.49,0,0,1,.58,0c.33.07.42.15.9.29a5.5,5.5,0,0,0,1.24.28"/><path class="cls-11" d="M175.16,181.27c-1-1-1.94-2.05-2.95-3a13.64,13.64,0,0,1-1.46-1.56c-.42-.58-.84-1.15-1.21-1.78a7.05,7.05,0,0,1-.8-2,10.87,10.87,0,0,0-.52-2c-.27-.64-.36-1.44-1-1.59a3,3,0,0,0-2,.36,2.83,2.83,0,0,1,2-.66,1.3,1.3,0,0,1,.91.73c.17.33.31.65.46,1a8.72,8.72,0,0,1,.63,2.06,6.39,6.39,0,0,0,.78,1.85c.33.6.74,1.18,1.13,1.75s.89,1,1.35,1.58A36.61,36.61,0,0,1,175.16,181.27Z"/><path class="cls-11" d="M165.14,169.63a3,3,0,0,0-.44,2.37,16.63,16.63,0,0,0,.66,2.42,4.76,4.76,0,0,1,.29,2.56,6.87,6.87,0,0,1-.93,2.37,9.34,9.34,0,0,0,.69-2.41,4.86,4.86,0,0,0-.35-2.41,14.36,14.36,0,0,1-.61-2.49,3.56,3.56,0,0,1,.06-1.3A2.68,2.68,0,0,1,165.14,169.63Z"/><path class="cls-36" d="M165.37,243.72c-.31.25-.76.62-1.29,1.09-.9.8-3.23,2.87-3,3.26.06.1.26.05,1.63-.35l2.52-.77c.68-.22,1.67-.52,2.91-.82"/><path class="cls-37" d="M224,139.12a8.56,8.56,0,0,0-2.85,2.82,9.55,9.55,0,0,0-1.23,4.58A43.72,43.72,0,0,1,218,156.67c-1.53,4.32-5.23,6.56-9.22,9a32.42,32.42,0,0,1-12.93,4.27,37.08,37.08,0,0,1-14.09-1.51c-3.59-1.16-5.39-1.75-7-3.34-.63-.63-1.64-1.83-2.06-1.59-.18.11-.17.44,0,2.25.1,1.36.15,2,.2,2.19.6,1.57,3.29,1.88,4.12,2,6.54.87,6.6,3.5,12.83,4,5.21.39,9.17-1.14,12.63-2.49,3.74-1.45,8-3.09,11.56-7.22,2.55-2.93,3.7-5.87,5.75-11.06a72.91,72.91,0,0,0,2.82-8.77"/><path class="cls-38" d="M224,139.12a6.13,6.13,0,0,0-2.86,3.21,20.18,20.18,0,0,0-.93,4.31,37.81,37.81,0,0,0-.36,4.42,25,25,0,0,1-.84,4.47,13.6,13.6,0,0,1-1.94,4.18,17.93,17.93,0,0,1-3.22,3.29,35,35,0,0,1-7.74,4.71,35.52,35.52,0,0,1-17.74,2.62,27.43,27.43,0,0,1-8.72-2.29,26.42,26.42,0,0,1-7.37-5.06,28.07,28.07,0,0,0,16.17,6.37,35.56,35.56,0,0,0,17.15-2.82,32.72,32.72,0,0,0,7.52-4.44,16.21,16.21,0,0,0,3-3,14.54,14.54,0,0,0,1.91-3.82,25.12,25.12,0,0,0,1-4.25,35.58,35.58,0,0,1,.55-4.45,20.05,20.05,0,0,1,1.23-4.34A6,6,0,0,1,224,139.12Z"/></g></g></svg>